<svg preserveAspectRatio="none" width="100%" height="100%" overflow="visible" style="display: block;" viewBox="0 0 252 207.999" fill="none" xmlns="http://www.w3.org/2000/svg">
<g id="Group">
<path id="Vector" d="M70.3831 127.322L97.8521 161.569L83.7464 169.207L60.0645 138.194C56.6039 137.945 52.9783 135.793 50.2656 131.944C45.5188 125.209 45.3666 115.856 49.9243 111.053C54.4821 106.25 62.0256 107.816 66.7737 114.551C69.4866 118.4 70.6918 123.102 70.3818 127.325L70.3831 127.322Z" fill="var(--fill-0, #ED9DA0)"/>
<path id="Vector_2" d="M31.2267 179.476L0 207.999H252L228.854 179.699L31.2267 179.476Z" fill="var(--fill-0, #D6D6E3)"/>
<path id="Vector_3" d="M234.807 188.835L213.908 198.343L182.12 196.876C182.12 196.876 202.061 186.581 207.713 186.483C213.366 186.386 226.727 187.274 234.809 188.835H234.807Z" fill="var(--fill-0, white)"/>
<path id="Vector_4" d="M157.574 51.2692C159.247 44.5989 158.685 37.389 156.011 31.2254C153.337 25.0619 148.769 20.4496 143.314 18.4033C137.858 16.357 131.961 17.0443 126.92 20.314C121.878 23.5836 118.106 29.1678 116.432 35.8381C113.606 47.1031 121.914 60.4837 121.914 60.4837L111.684 105.491L176.203 98.8065C176.203 98.8065 143.519 77.3536 143.1 68.781C146.509 67.5523 149.615 65.3096 152.141 62.2536C154.667 59.1975 156.533 55.4235 157.574 51.2692Z" fill="var(--fill-0, #ED9DA0)"/>
<path id="Vector_5" d="M172.928 181.222H137.779L137.775 181.078L97.0817 181.222L96.8192 172.701C94.1997 172.437 90.0803 171.911 88.2108 171.084C76.2421 174.499 63.4255 144.121 63.4255 144.121C68.2227 143.302 74.3605 131.048 74.3605 131.048L81.1647 139.218L87.6427 139.434C86.8211 125.762 85.5293 100.614 86.7544 94.9488C88.4572 87.0746 94.1658 86.183 94.1658 86.183L114.214 78.0138L120.042 68.7238C123.021 86.8461 140.418 86.8461 143.397 68.7238L157.956 78.0138L178.004 86.183C178.004 86.183 183.713 87.0736 185.416 94.9482C187.119 102.823 194.892 145.011 194.892 145.011C194.892 145.011 199.446 150.506 196.835 158.084C196.835 158.084 197.744 166.476 194.892 167.74C192.04 169.004 172.921 187.047 172.921 187.047L172.928 181.222Z" fill="var(--fill-0, #E6E6E6)"/>
<path id="Vector_6" d="M176.177 191.4H92.5677C91.4397 191.404 90.351 190.893 89.5151 189.967C88.6793 189.041 88.1567 187.766 88.0498 186.393L82.8733 121.954C82.8114 121.183 82.8822 120.405 83.081 119.669C83.2799 118.934 83.6025 118.257 84.028 117.683C84.4536 117.109 84.9727 116.651 85.5519 116.337C86.1311 116.023 86.7577 115.861 87.3912 115.861H181.824C182.461 115.861 183.091 116.025 183.673 116.342C184.255 116.659 184.776 117.122 185.201 117.701C185.627 118.28 185.949 118.963 186.145 119.704C186.341 120.445 186.407 121.228 186.339 122.002L180.691 186.441C180.573 187.804 180.047 189.065 179.213 189.981C178.379 190.897 177.297 191.402 176.176 191.4H176.177Z" fill="var(--fill-0, #6C63FF)"/>
<path id="Vector_7" d="M69.563 144.271H55.8939L50.973 103.492H72.297L69.563 144.271Z" fill="var(--fill-0, #6C63FF)"/>
<path id="Vector_8" d="M205.464 183.339H187.36L184.686 184.792L195.865 195.966L217.128 196.709L217.006 193.292L205.464 183.339Z" fill="var(--fill-0, #090814)"/>
<path id="Vector_9" d="M82.2583 192.847L61.3596 202.354L29.5709 200.887C29.5709 200.887 49.512 190.592 55.1646 190.495C60.8173 190.397 74.177 191.285 82.2583 192.847Z" fill="var(--fill-0, #F2F2F2)"/>
<path id="Vector_10" d="M77.8843 189.505L56.9856 199.012L25.1969 197.545C25.1969 197.545 45.1379 187.25 50.7906 187.152C56.4433 187.055 69.8043 187.943 77.8861 189.505H77.8843Z" fill="var(--fill-0, white)"/>
<path id="Vector_11" d="M118.892 30.9965L117.409 49.499C117.409 49.499 101.842 12.571 121.2 5.74237C121.2 5.74237 119.315 2.62123 122.051 1.58299C124.787 0.544747 150.724 -4.43496 152.792 11.0902C152.792 11.0902 166.341 21.3577 162.242 32.3429C162.242 32.3429 160.639 41.2505 159.105 44.2196C157.571 47.1886 156.105 44.2196 156.105 44.2196C156.105 44.2196 152.912 20.9675 146.232 21.7858C139.551 22.6042 118.892 30.9965 118.892 30.9965Z" fill="var(--fill-0, #090814)"/>
<g id="Group_2">
<path id="Vector_12" d="M185.055 52.3257C183.624 56.249 182.381 60.2785 181.33 64.3973C181.285 64.5763 181.304 64.7755 181.381 64.953C181.459 65.1305 181.59 65.2724 181.747 65.3489L192.677 70.9279C192.808 70.9882 192.948 70.9986 193.076 70.9576C193.204 70.9166 193.313 70.8265 193.386 70.7008C195.104 66.8732 196.42 62.7851 197.308 58.5163C197.35 58.337 197.331 58.1389 197.253 57.9622C197.175 57.7855 197.046 57.6434 196.89 57.5647C193.317 55.3699 189.653 53.418 185.92 51.7197C185.148 51.3687 184.785 52.7162 185.558 53.0677C189.292 54.7661 192.956 56.7182 196.529 58.9132L196.112 57.9616C195.258 62.1102 193.988 66.0846 192.329 69.8074L193.038 69.5803L182.109 64.0013L182.527 64.9526C183.578 60.8339 184.821 56.8044 186.251 52.881C186.298 52.702 186.28 52.5021 186.202 52.3242C186.124 52.1462 185.991 52.0044 185.834 51.9293C185.675 51.8599 185.505 51.8623 185.36 51.9362C185.215 52.0101 185.105 52.1496 185.055 52.3257Z" fill="var(--fill-0, black)"/>
<path id="Vector_13" d="M187.667 57.8659L188.117 57.2572L187.038 57.1091C187.397 57.9118 187.815 58.7838 188.525 59.2965C188.857 59.5583 189.242 59.7157 189.633 59.7496C190.024 59.7834 190.405 59.6922 190.728 59.4871C190.776 59.4525 191.015 59.2641 191.016 59.2661L190.742 59.224C190.677 59.1332 190.674 59.1409 190.733 59.2473C190.748 59.3104 190.767 59.3728 190.788 59.4345C190.843 59.67 190.949 59.8926 191.098 60.0821C191.247 60.2716 191.432 60.4221 191.639 60.5199C192.538 60.905 193.208 60.2357 193.652 59.5367C193.652 59.5367 193.027 58.0172 192.589 58.7045C192.589 58.7045 192.315 59.2141 192.087 59.2593C191.956 59.2861 191.993 59.2051 191.947 59.0572C191.856 58.6701 191.633 58.3229 191.325 58.09C191.148 57.9764 190.949 57.9193 190.753 57.9257C190.557 57.9321 190.373 58.0018 190.224 58.1262C190.045 58.2536 189.933 58.4016 189.712 58.4022C189.541 58.3914 189.371 58.3328 189.217 58.232C188.677 57.8817 188.394 57.1579 188.133 56.5738C188.079 56.4653 188.002 56.3712 187.909 56.3004C187.816 56.2297 187.71 56.1847 187.602 56.1698C187.493 56.1549 187.386 56.1705 187.29 56.2153C187.194 56.26 187.113 56.3324 187.054 56.4253L186.604 57.034C186.519 57.1789 186.492 57.3606 186.53 57.5402C186.568 57.7197 186.667 57.8827 186.807 57.9941C186.949 58.1007 187.117 58.1469 187.278 58.123C187.438 58.0991 187.577 58.007 187.667 57.8659Z" fill="var(--fill-0, black)"/>
<path id="Vector_14" d="M187.456 61.8619C187.479 61.9767 187.463 62.0927 187.412 62.1871C187.361 62.2816 187.277 62.3476 187.179 62.3724C187.12 62.3804 187.059 62.3718 187.002 62.3474C186.944 62.323 186.891 62.2836 186.848 62.2326C186.848 62.2326 186.817 62.1276 186.87 62.2684C186.885 62.3035 186.9 62.3392 186.913 62.3752C186.89 62.304 186.885 62.291 186.901 62.3363C186.95 62.3853 186.97 62.5497 187.001 62.6323C187.019 62.6815 187.04 62.7299 187.063 62.777C187.151 62.9643 187.277 63.1295 187.429 63.2588C187.858 63.5997 188.314 63.5207 188.729 63.3239C188.796 63.2924 188.862 63.259 188.93 63.2296C188.946 63.2229 188.961 63.2166 188.977 63.2106C189.036 63.1889 189.017 63.1944 188.92 63.227C188.949 63.2179 188.979 63.2109 189.01 63.2059C189.109 63.1683 188.868 63.193 188.969 63.2064C189.034 63.2183 189.009 63.2099 188.891 63.181C188.953 63.2094 188.931 63.1937 188.825 63.1338L188.862 63.1622C188.816 63.1289 188.78 63.0808 188.758 63.0253C188.758 63.0253 188.78 63.068 188.79 63.0903C188.809 63.138 188.804 63.1194 188.774 63.0345C188.825 63.1037 188.831 63.2991 188.845 63.3815C188.861 63.4817 188.884 63.5811 188.914 63.6788C188.965 63.8753 189.055 64.0601 189.179 64.2179C189.303 64.3757 189.455 64.502 189.624 64.5864C189.783 64.6544 189.954 64.6525 190.099 64.581C190.244 64.5095 190.353 64.3742 190.401 64.2041C190.444 64.0329 190.425 63.8432 190.346 63.6743C190.268 63.5054 190.138 63.3703 189.981 63.2971C190.034 63.3212 190.081 63.3613 190.116 63.4125C190.071 63.3524 190.076 63.3647 190.13 63.4493C190.115 63.4201 190.101 63.3899 190.089 63.359C190.118 63.4511 190.121 63.4597 190.1 63.3849C190.074 63.2517 190.053 63.1206 190.026 62.987C189.996 62.8014 189.932 62.6209 189.839 62.4566C189.747 62.2922 189.627 62.1474 189.487 62.0309C189.002 61.6565 188.519 61.865 188.072 62.0671C188.029 62.0811 187.988 62.0981 187.948 62.1182C188.046 62.0887 188.066 62.0822 188.006 62.0987C187.985 62.1036 187.966 62.1076 187.946 62.1107C187.852 62.1451 188.093 62.1254 187.987 62.1108C187.921 62.099 187.947 62.1076 188.064 62.1364C188.002 62.1089 188.024 62.1248 188.13 62.184C188.072 62.1363 188.078 62.1454 188.15 62.2114C188.106 62.1493 188.11 62.1579 188.163 62.237C188.138 62.2259 188.089 62.0704 188.083 62.0428C188.114 62.1334 188.116 62.1396 188.09 62.0615L188.032 61.8897C188.008 61.817 187.979 61.7459 187.945 61.677C187.847 61.4564 187.69 61.2703 187.499 61.1467C187.307 61.0231 187.09 60.9685 186.881 60.9912C186.771 61.0055 186.667 61.0446 186.575 61.1064C186.483 61.1682 186.405 61.2513 186.345 61.3509C186.246 61.4504 186.206 61.5644 186.228 61.6859C186.21 61.8075 186.215 61.9342 186.242 62.0586C186.285 62.24 186.387 62.403 186.528 62.5134C186.669 62.6237 186.837 62.6729 186.998 62.6507C187.158 62.6225 187.295 62.5242 187.381 62.3768C187.466 62.2294 187.494 62.0446 187.456 61.8619Z" fill="var(--fill-0, black)"/>
</g>
<g id="Group_3">
<path id="Vector_15" d="M209.502 35.0881C209.979 39.3889 210.654 43.6392 211.523 47.821C211.561 48.0021 211.66 48.153 211.798 48.2421C211.936 48.3312 212.103 48.3515 212.263 48.2988L223.528 44.8273C223.66 44.7803 223.779 44.6852 223.867 44.5566C223.954 44.428 224.005 44.2729 224.012 44.1148C223.81 39.6805 223.17 35.3282 222.105 31.1428C222.064 30.9634 221.965 30.8142 221.828 30.7254C221.69 30.6367 221.525 30.6151 221.365 30.665C217.526 31.4936 213.716 32.5897 209.955 33.9472C209.177 34.2276 209.446 35.6102 210.225 35.3288C213.986 33.9713 217.797 32.8753 221.636 32.0468L220.896 31.5689C221.938 35.6298 222.568 39.8537 222.774 44.1584L223.258 43.4459L211.993 46.9173L212.733 47.3949C211.864 43.2131 211.189 38.9629 210.712 34.662C210.675 34.4799 210.577 34.3278 210.438 34.2385C210.3 34.1491 210.132 34.1296 209.972 34.1842C209.813 34.2441 209.676 34.3716 209.588 34.5401C209.501 34.7085 209.47 34.9049 209.502 35.0881Z" fill="var(--fill-0, black)"/>
<path id="Vector_16" d="M214.013 37.5542L214.123 36.7452L213.161 37.355C213.809 37.7751 214.537 38.2123 215.35 38.1544C215.74 38.1456 216.129 38.0146 216.469 37.7771C216.809 37.5396 217.086 37.206 217.265 36.8169C217.29 36.7554 217.407 36.4376 217.409 36.4384L217.162 36.5897C217.069 36.5586 217.07 36.567 217.165 36.6151C217.205 36.6569 217.248 36.6961 217.292 36.7327C217.44 36.8901 217.626 37.0019 217.832 37.0578C218.038 37.1137 218.258 37.112 218.472 37.0529C219.388 36.7606 219.653 35.7527 219.718 34.873C219.783 34.005 218.537 34.0405 218.472 34.9059C218.455 35.1403 218.466 35.5139 218.296 35.706C218.199 35.8169 218.194 35.7248 218.092 35.6334C217.847 35.3754 217.511 35.2397 217.154 35.2557C216.957 35.2822 216.766 35.37 216.606 35.5082C216.446 35.6465 216.324 35.8291 216.253 36.0335C216.16 36.2599 216.131 36.4588 215.948 36.609C215.801 36.7164 215.634 36.7835 213.802 38.0309C213.925 37.9024 214 37.7316 214.013 37.5542Z" fill="var(--fill-0, black)"/>
<path id="Vector_17" d="M215.35 41.0736C215.419 41.1526 215.456 41.2596 215.455 41.3735C215.453 41.4874 215.413 41.6001 215.342 41.6896C215.297 41.7371 215.243 41.7726 215.185 41.7928C215.185 41.7928 215.066 41.8174 215.008 41.8054C215.131 41.8303 214.937 41.7403 215.042 41.8198C215.07 41.8378 215.098 41.8571 215.124 41.8777C215.074 41.8352 215.065 41.8274 215.097 41.8542C215.159 41.8599 215.247 41.9818 215.308 42.0287C215.344 42.0567 215.382 42.0822 215.422 42.1051C215.576 42.1981 215.751 42.2468 215.933 42.2473C216.435 42.2292 216.777 41.8455 217.035 41.392C217.077 41.3192 217.117 41.2454 217.16 41.1734C217.17 41.1572 217.18 41.1412 217.19 41.1254C217.23 41.0658 217.217 41.0836 217.15 41.1788C217.171 41.1506 217.193 41.1237 217.216 41.0981C217.282 40.9975 217.093 41.1868 217.182 41.1272C217.241 41.0913 217.216 41.1024 217.107 41.1606C217.171 41.1406 217.146 41.143 217.032 41.168L217.074 41.1658C217.022 41.1702 216.971 41.1559 216.93 41.125C216.948 41.134 216.967 41.1446 216.984 41.1567C217.021 41.1823 217.009 41.1705 216.947 41.1213C217.019 41.1431 217.108 41.3005 217.155 41.3591C217.212 41.4306 217.274 41.4966 217.341 41.5564C217.468 41.6833 217.623 41.7725 217.794 41.8166C217.964 41.8607 218.145 41.8583 218.321 41.8098C218.482 41.755 218.622 41.6343 218.711 41.4736C218.8 41.313 218.831 41.1252 218.797 40.9507C218.797 40.9507 218.66 40.6358 218.523 40.5509C218.385 40.4659 218.218 40.4456 218.058 40.4944C218.112 40.4774 218.168 40.478 218.219 40.4959C218.156 40.4772 218.165 40.484 218.247 40.5162C218.221 40.5028 218.197 40.4874 218.173 40.4704C218.237 40.5263 218.244 40.5309 218.194 40.484C218.115 40.392 218.04 40.2984 217.96 40.2067C217.855 40.0745 217.724 39.9697 217.577 39.8986C217.429 39.8275 217.267 39.7917 217.101 39.7932C216.538 39.8228 216.229 40.3333 215.948 40.8128C215.919 40.854 215.892 40.8969 215.868 40.9414C215.936 40.8483 215.949 40.8296 215.863 40.9369C215.8 41.0312 215.991 40.8458 215.896 40.9083C215.837 40.9444 215.862 40.9333 215.972 40.8752C215.908 40.8961 215.933 40.8939 216.047 40.8684C215.978 40.8699 215.987 40.873 216.075 40.8775C216.012 40.8568 216.019 40.8607 216.097 40.8894C216.071 40.8979 215.964 40.8031 215.947 40.7845C216.011 40.838 216.016 40.8416 215.961 40.7953L215.838 40.6936C215.787 40.6936 215.732 40.6124 215.674 40.5789C215.498 40.4651 215.288 40.4208 215.076 40.4527C214.864 40.4845 214.661 40.5908 214.499 40.7556C214.414 40.8444 214.345 40.9496 214.295 41.0651C214.295 41.0651 214.218 41.304 214.211 41.4279C214.205 41.5519 214.222 41.674 214.26 41.7868C214.298 41.8997 214.357 42.0011 214.433 42.085C214.547 42.2053 214.702 42.2684 214.866 42.2612C215.03 42.254 215.19 42.1769 215.314 42.0461C215.433 41.911 215.504 41.7336 215.511 41.5519C215.518 41.3702 215.46 41.1985 215.35 41.0736Z" fill="var(--fill-0, black)"/>
</g>
<g id="Group_4">
<path id="Vector_18" d="M79.1628 60.8041C79.4594 65.1578 79.9538 69.4754 80.6436 73.739C80.6745 73.9237 80.7661 74.0827 80.8992 74.1825C81.0324 74.2823 81.1967 74.3153 81.3577 74.2744L92.6665 71.6376C92.7995 71.6003 92.9212 71.5138 93.0131 71.3913C93.105 71.2687 93.1621 71.1169 93.1758 70.9587C93.1758 70.9587 92.7012 62.0743 91.8172 57.7924C91.8172 57.7924 91.6921 57.4519 91.5595 57.3525C91.427 57.2531 91.2638 57.2189 91.1032 57.257C87.2642 57.7998 83.4422 58.6132 79.6581 59.6928C78.8763 59.9159 79.0856 61.324 79.8692 61.1002C83.6534 60.0206 87.4756 59.2072 91.3148 58.6645L90.6008 58.1291C91.4675 62.2843 91.919 66.5722 91.9465 70.9093L92.4557 70.2304L81.1469 72.8672L81.8609 73.4023C81.1709 69.1388 80.6765 64.8212 80.3798 60.4675C80.3503 60.2819 80.2591 60.1218 80.1255 60.0217C79.992 59.9216 79.8269 59.8894 79.6658 59.9321C79.506 59.9803 79.3645 60.098 79.2707 60.2605C79.2707 60.2605 79.1383 60.6178 79.1628 60.8041Z" fill="var(--fill-0, black)"/>
<path id="Vector_19" d="M83.5262 63.6568L83.6696 62.8523L82.6875 63.3991C83.3137 63.8647 84.0182 64.3529 84.8295 64.3499C85.2176 64.3676 85.6095 64.2625 85.9577 64.0472C86.3058 63.8319 86.5951 63.5159 86.7903 63.1375C86.8181 63.0776 86.9475 62.7664 86.9493 62.7674L86.6979 62.9026C86.6064 62.8649 86.6069 62.8735 86.6994 62.9282C86.7377 62.9728 86.7781 63.0151 86.8207 63.0548C86.9615 63.2229 87.1411 63.3477 87.3435 63.4178C87.5459 63.4878 87.7647 63.5011 87.98 63.4563C88.9033 63.2251 89.2103 62.2315 89.3129 61.353C89.4145 60.4862 88.1743 60.4373 88.0729 61.3015C88.0454 61.5355 88.0402 61.9112 87.8631 62.0925C87.7618 62.1972 87.7613 62.1045 87.6634 62.0059C87.4315 61.7303 87.1025 61.5713 86.7471 61.5631C86.55 61.5763 86.357 61.6515 86.192 61.7794C86.0269 61.9073 85.897 62.0822 85.8184 62.2826C85.7163 62.5036 85.6788 62.7012 85.4902 62.8395C85.3393 62.9373 85.1702 62.9933 84.9991 63.0023C84.3973 63.039 83.8677 62.5936 83.4124 62.2544C83.3232 62.1949 83.2197 62.1622 83.1119 62.1595C83.0042 62.1568 82.8958 62.1843 82.7971 62.2392C82.6984 62.294 82.6128 62.3746 82.5485 62.4729C82.4842 62.5713 82.4434 62.6843 82.4299 62.801L82.2865 63.6055C82.2708 63.7835 82.3201 63.9564 82.4239 64.0871C82.5276 64.2177 82.6775 64.2957 82.8413 64.3042C83.005 64.3072 83.1677 64.2416 83.2953 64.1209C83.4229 64.0003 83.5057 63.834 83.5262 63.6568Z" fill="var(--fill-0, black)"/>
<path id="Vector_20" d="M84.7062 67.2532C84.7708 67.3374 84.8032 67.4475 84.7969 67.5619C84.7905 67.5619 84.746 67.6724 84.672 67.8717C84.6253 67.9163 84.5702 67.9482 84.5114 67.9644C84.4527 67.9806 84.3922 67.9807 84.3353 67.9646C84.4559 67.9982 84.2675 67.8942 84.368 67.9814C84.3952 68.0015 84.4216 68.0229 84.4471 68.0454C84.399 67.9992 84.3903 67.9907 84.4212 68.0199C84.4828 68.03 84.5648 68.1587 84.6234 68.2101C84.6584 68.2408 84.695 68.2691 84.7332 68.2949C84.8824 68.3992 85.0544 68.4606 85.2348 68.4738C85.7342 68.491 86.0902 68.1294 86.366 67.6918C86.4105 67.6216 86.4534 67.5503 86.4998 67.481C86.5101 67.4654 86.5207 67.45 86.5316 67.4349C86.5738 67.3778 86.5597 67.3947 86.4895 67.4857C86.5112 67.4588 86.5341 67.4333 86.5582 67.4092C86.6278 67.3128 86.4322 67.4897 86.5235 67.4361C86.5838 67.4042 86.5585 67.4136 86.4473 67.4644C86.5115 67.4487 86.4864 67.4494 86.3723 67.4666L86.4148 67.4673C86.3626 67.4681 86.3128 67.4501 86.2727 67.4161C86.291 67.4265 86.3085 67.4384 86.3251 67.4518C86.3608 67.4801 86.3491 67.4674 86.29 67.4136C86.3604 67.4406 86.4425 67.6051 86.4868 67.6673C86.5401 67.7432 86.599 67.8139 86.6631 67.8786C86.7838 68.0152 86.9341 68.1158 87.1014 68.172C87.2688 68.2283 87.4485 68.2387 87.6256 68.2024C87.7876 68.2024 87.9316 68.0471 88.0269 67.892C88.1222 67.7368 88.161 67.5502 88.1351 67.3724C88.1042 67.1972 88.0127 67.0464 87.8795 66.9513C87.8795 66.9513 87.5818 66.8241 87.4201 66.8618C87.4743 66.8486 87.5299 66.853 87.5799 66.8746C87.5183 66.8514 87.5272 66.8589 87.6067 66.897C87.582 66.8817 87.5584 66.8646 87.536 66.8458C87.5969 66.9065 87.6034 66.9115 87.5555 66.861C87.481 66.7629 87.4111 66.6636 87.3356 66.5658C87.2365 66.4255 87.1113 66.311 86.9676 66.2291C86.8239 66.1473 86.6647 66.0998 86.4998 66.0897C85.9395 66.0798 85.6108 66.571 85.3106 67.0332C85.2801 67.0725 85.2518 67.1138 85.2259 67.1567C85.2977 67.0681 85.3113 67.0501 85.2669 67.1029C85.2517 67.1202 85.2363 67.1365 85.2208 67.1519C85.1543 67.2422 85.3522 67.0694 85.2556 67.1255C85.1953 67.1576 85.2207 67.1483 85.3318 67.0975C85.2678 67.1141 85.2928 67.1136 85.4067 67.096C85.3381 67.0927 85.3471 67.0964 85.434 67.1071C85.3722 67.0819 85.3794 67.0864 85.4554 67.1207C85.4296 67.1274 85.327 67.0245 85.311 67.0046C85.3728 67.0629 85.3772 67.0669 85.3241 67.0165L85.2071 66.9056C85.1575 66.9056 85.1046 66.8165 85.0488 66.7788C84.8783 66.652 84.6716 66.5927 84.4598 66.6098C84.2479 66.6269 84.0423 66.7195 83.8737 66.8736C83.7857 66.9568 83.7126 67.0577 83.6587 67.1703C83.6048 67.2829 83.5711 67.4049 83.5597 67.5291C83.5484 67.6533 83.5595 67.7771 83.5925 67.8932C83.6255 68.0093 83.6796 68.1153 83.7518 68.205C83.8595 68.334 84.0109 68.4083 84.1742 68.4126C84.3375 68.4169 84.5002 68.3507 84.6281 68.228C84.7529 68.1006 84.8309 67.9274 84.8455 67.7452Z" fill="var(--fill-0, black)"/>
</g>
<g id="Group_5">
<path id="Vector_21" d="M57.8376 31.2726C57.1147 35.607 56.5867 39.9921 56.2559 44.4094C56.2425 44.6012 56.2924 44.7944 56.3952 44.9484C56.498 45.1024 56.6456 45.2052 56.8071 45.2353L68.0984 47.5757C68.2327 47.5971 68.3676 47.5662 68.4826 47.4875C68.5977 47.4089 68.6866 47.2868 68.7359 47.1399C69.7476 42.8162 70.3349 38.3514 70.4865 33.8324C70.4976 33.6411 70.4468 33.4494 70.3444 33.296C70.2421 33.1427 70.0959 33.0392 69.9354 33.0065C66.1835 31.8716 62.3853 31.0056 58.5617 30.4131C57.7717 30.2906 57.6449 31.7416 58.4367 31.864C62.2605 32.4566 66.0589 33.3228 69.8109 34.4578L69.2597 33.632C69.1211 38.0211 68.5595 42.3588 67.586 46.5608L68.2236 46.1251L56.9323 43.7847L57.4835 44.6103C57.8141 40.1929 58.342 35.8079 59.0649 31.4735C59.0799 31.2814 59.0305 31.0872 58.9275 30.9328C58.8244 30.7784 58.6758 30.676 58.5137 30.6476C58.3517 30.6251 58.1909 30.6776 58.0649 30.7941C57.9389 30.9106 57.8575 31.082 57.8376 31.2726Z" fill="var(--fill-0, black)"/>
<path id="Vector_22" d="M61.1842 36.051L61.5133 35.3189L60.4515 35.4646C60.933 36.1704 61.4832 36.9294 62.2526 37.2492C62.616 37.4209 63.0126 37.4737 63.3941 37.4011C63.7756 37.3284 64.1256 37.1335 64.4014 36.84C64.442 36.7922 64.6394 36.5385 64.6408 36.5402L64.3702 36.5728C64.2925 36.4995 64.291 36.5081 64.3655 36.5986C64.391 36.6575 64.4192 36.7151 64.45 36.771C64.543 36.9919 64.6832 37.1857 64.8582 37.3349C65.0331 37.4842 65.2372 37.5842 65.4519 37.6259C66.3821 37.7664 66.9115 36.9139 67.2197 36.0931C67.524 35.2833 66.3609 34.7421 66.0573 35.5493C65.975 35.768 65.8799 36.1344 65.6686 36.2418C65.5474 36.3042 65.5693 36.2131 65.5002 36.0774C65.3466 35.7148 65.0731 35.428 64.7384 35.2785C64.5485 35.2131 64.3476 35.2101 64.1606 35.2699C63.9735 35.3297 63.8084 35.4496 63.6858 35.6149C63.536 35.791 63.4531 35.9699 63.2412 36.0305C63.0747 36.0664 62.9011 36.0542 62.7368 35.9949C62.1579 35.7915 61.7631 35.144 61.4131 34.6302C61.3429 34.5363 61.2527 34.4631 61.1513 34.4176C61.0498 34.3721 60.9405 34.3559 60.8339 34.3705C60.7272 34.3851 60.6268 34.43 60.5423 34.5009C60.4577 34.5718 60.3919 34.6664 60.3511 34.7755L60.0221 35.5075C59.9645 35.6759 59.9697 35.8651 60.0366 36.0345C60.1035 36.2039 60.2268 36.34 60.3799 36.4135C60.5343 36.4816 60.7042 36.4819 60.8541 36.4143C61.0039 36.3468 61.1222 36.2166 61.1842 36.051Z" fill="var(--fill-0, black)"/>
<path id="Vector_23" d="M61.6367 39.9868C61.6778 40.0957 61.6822 40.2166 61.6489 40.3258C61.6157 40.435 61.5472 40.5247 61.457 40.5773C61.4022 40.6018 61.3425 40.6103 61.283 40.602C61.2236 40.5937 61.1663 40.569 61.1164 40.53C61.1164 40.53 60.963 40.4333 61.0369 40.5598C61.0369 40.5598 61.0567 40.5915 61.0755 40.624C61.0409 40.5591 61.0347 40.5472 61.0569 40.5884C61.1128 40.6236 61.1597 40.783 61.2029 40.8574C61.2287 40.9017 61.2566 40.9444 61.2865 40.9853C61.4029 41.1485 61.551 41.2791 61.7184 41.3661C62.1868 41.5879 62.6097 41.3807 62.9749 41.0662C63.0336 41.0157 63.0912 40.9637 63.1517 40.915C63.1651 40.904 63.1788 40.8933 63.1927 40.883C63.2462 40.8444 63.2289 40.8552 63.1408 40.9154C63.1677 40.898 63.1955 40.8824 63.224 40.8688C63.3129 40.8031 63.0856 40.8958 63.1847 40.8808C63.2494 40.8744 63.2232 40.8732 63.106 40.8772C63.1704 40.8882 63.1465 40.8787 63.0344 40.8485L63.0745 40.8667C63.025 40.8461 62.9821 40.808 62.9522 40.7583C62.9671 40.776 62.9808 40.7949 62.9934 40.8147C63.0204 40.857 63.0124 40.8398 62.9692 40.763C63.0295 40.8183 63.0679 41.0127 63.0949 41.0917C63.1273 41.1878 63.1662 41.2811 63.2113 41.3707C63.293 41.5537 63.4112 41.7137 63.5561 41.8374C63.7011 41.9612 63.8685 42.0451 64.0448 42.0823C64.2084 42.106 64.3712 42.0562 64.4983 41.9436C64.6255 41.831 64.7067 41.6646 64.7245 41.4802C64.737 41.2963 64.6863 41.1112 64.583 40.9636C64.4797 40.816 64.3317 40.7171 64.1698 40.6875C64.2242 40.6969 64.2757 40.724 64.3179 40.7657C64.2651 40.7177 64.2718 40.7287 64.3379 40.7985C64.3182 40.7735 64.2999 40.7471 64.2832 40.7195C64.3263 40.8038 64.3313 40.8114 64.298 40.7423C64.2509 40.6159 64.2085 40.4901 64.1604 40.3635C64.1 40.1857 64.0088 40.0224 63.8924 39.8834C63.776 39.7444 63.6367 39.6327 63.4831 39.555C62.9555 39.3154 62.5275 39.6606 62.1334 39.9891C62.0952 40.015 62.0586 40.0437 62.0238 40.0751C62.1128 40.0179 62.13 40.0059 62.0754 40.0393C62.0569 40.0499 62.0385 40.0596 62.0202 40.0682C61.9357 40.1293 62.1641 40.0415 62.0594 40.0568C61.9947 40.0634 62.0209 40.0647 62.1381 40.0607C62.0736 40.0507 62.0974 40.0604 62.2094 40.09C62.1452 40.0585 62.1529 40.0659 62.2325 40.112C62.1801 40.062 62.1858 40.0693 62.2495 40.134C62.2235 40.13 62.1509 39.9874 62.1406 39.9613C62.1851 40.0437 62.1883 40.0494 62.1501 39.9783L62.0659 39.8219C62.0301 39.7559 61.9901 39.6927 61.9463 39.633C61.8152 39.4391 61.6339 39.2962 61.4294 39.226C61.2249 39.1557 61.0083 39.1618 60.8121 39.2432C60.7091 39.2885 60.6159 39.3571 60.538 39.445C60.4602 39.5329 60.3993 39.6383 60.359 39.755C60.3186 39.8717 60.2996 39.9973 60.3032 40.1244C60.3067 40.2514 60.3327 40.3773 60.3796 40.4946C60.4507 40.6648 60.5762 40.7997 60.7297 40.8709C60.8832 40.9422 61.0528 40.9442 61.2031 40.8768C61.3514 40.8035 61.4665 40.6662 61.5237 40.4941C61.5809 40.3221 61.5757 40.129 61.5092 39.956Z" fill="var(--fill-0, black)"/>
</g>
<g id="Group_6">
<path id="Vector_24" d="M186.388 11.7607C186.492 16.1832 186.794 20.586 187.292 24.9506C187.315 25.1398 187.399 25.308 187.527 25.4201C187.655 25.5321 187.817 25.5792 187.979 25.5514L199.34 23.8387C199.474 23.8122 199.599 23.7351 199.696 23.619C199.792 23.503 199.856 23.3544 199.876 23.1958C200.054 18.6822 199.795 14.1819 199.104 9.7824C199.079 9.59457 198.994 9.42799 198.867 9.31643C198.74 9.20487 198.579 9.15666 198.417 9.18157C194.576 9.40712 190.74 9.90747 186.929 10.6799C186.142 10.8394 186.288 12.2794 187.077 12.1192C190.888 11.3468 194.724 10.8466 198.566 10.6211L197.879 10.0203C198.559 14.2903 198.819 18.6594 198.656 23.0425L199.192 22.3996L187.831 24.1124L188.518 24.7129C188.019 20.3483 187.717 15.9455 187.613 11.523C187.592 11.523 187.508 11.1637 187.38 11.0513C187.251 10.939 187.089 10.8926 186.926 10.9222C186.766 10.9575 186.62 11.0644 186.519 11.2207C186.419 11.3769 186.372 11.5704 186.388 11.7607Z" fill="var(--fill-0, black)"/>
<path id="Vector_25" d="M190.593 15.0737L190.772 14.266L189.77 14.7477C190.372 15.2691 191.051 15.8194 191.858 15.878C192.244 15.9256 192.638 15.8484 192.995 15.6558C193.351 15.4633 193.653 15.1637 193.864 14.7935C193.895 14.7346 194.038 14.4279 194.039 14.429L193.783 14.5474C193.694 14.5022 193.694 14.5109 193.783 14.5737C193.819 14.622 193.858 14.6681 193.898 14.7117C194.031 14.8935 194.204 15.034 194.402 15.1207C194.6 15.2074 194.817 15.2376 195.034 15.2084C195.963 15.0433 196.313 14.0557 196.455 13.1696C196.596 12.2954 195.364 12.1513 195.224 13.0229C195.186 13.259 195.164 13.6408 194.979 13.8118C194.874 13.9107 194.877 13.8163 194.784 13.7085C194.566 13.4104 194.246 13.2237 193.893 13.1883C193.696 13.1867 193.501 13.2486 193.331 13.3661C193.161 13.4837 193.023 13.6519 192.936 13.8498C192.824 14.0668 192.778 14.265 192.584 14.3914C192.43 14.4795 192.259 14.5236 192.088 14.5198C191.488 14.5114 190.981 14.0179 190.543 13.6382C190.457 13.5708 190.356 13.5296 190.249 13.5187C190.249 13.5187 190.142 13.5275 190.032 13.5758C189.932 13.6242 189.843 13.6996 189.774 13.7948C189.705 13.89 189.66 14.0019 189.641 14.1196L189.462 14.9272C189.438 15.1072 189.479 15.2869 189.577 15.4277C189.674 15.5685 189.82 15.6592 189.982 15.6803C190.145 15.6959 190.31 15.6414 190.442 15.5284C190.575 15.4153 190.664 15.2524 190.693 15.0737Z" fill="var(--fill-0, black)"/>
<path id="Vector_26" d="M191.617 18.7342C191.678 18.825 191.705 18.9395 191.694 19.0553C191.682 19.171 191.633 19.2798 191.556 19.3603C191.507 19.4019 191.451 19.4299 191.392 19.4418C191.332 19.4536 191.272 19.4489 191.216 19.4281C191.335 19.4718 191.152 19.3511 191.248 19.4478C191.274 19.4704 191.3 19.4941 191.324 19.5191C191.278 19.4683 191.27 19.4589 191.299 19.491C191.36 19.5062 191.436 19.6435 191.492 19.7004C191.525 19.7344 191.561 19.7661 191.597 19.7953C191.741 19.9131 191.909 19.9891 192.088 20.0168C192.584 20.0738 192.955 19.7344 193.249 19.3113C193.296 19.2434 193.342 19.1743 193.391 19.1076C193.402 19.0925 193.414 19.0778 193.425 19.0632C193.47 19.0085 193.455 19.0246 193.381 19.1116C193.404 19.086 193.428 19.0618 193.453 19.0392C193.526 18.9467 193.324 19.1111 193.417 19.0638C193.478 19.0362 193.453 19.0437 193.34 19.0865C193.404 19.0757 193.38 19.0744 193.265 19.0828L193.307 19.0869C193.256 19.0836 193.207 19.0614 193.168 19.0236C193.186 19.0357 193.203 19.0492 193.219 19.0641C193.253 19.0957 193.242 19.0818 193.186 19.0225C193.255 19.0554 193.329 19.2292 193.37 19.2959C193.42 19.3773 193.475 19.4538 193.536 19.5247C193.65 19.673 193.795 19.7871 193.959 19.8576C194.123 19.9281 194.301 19.9528 194.479 19.9299C194.642 19.8982 194.79 19.7963 194.892 19.646C194.994 19.4958 195.041 19.3093 195.023 19.1265C195 18.9459 194.916 18.7854 194.788 18.6782C194.66 18.571 194.497 18.5254 194.335 18.5508C194.389 18.5417 194.444 18.5506 194.493 18.5765C194.433 18.5481 194.442 18.5564 194.519 18.6014C194.495 18.5839 194.472 18.5647 194.451 18.5437C194.509 18.6103 194.515 18.6159 194.47 18.5607C194.4 18.4551 194.335 18.3487 194.264 18.2433C194.172 18.0929 194.052 17.9665 193.913 17.872C193.774 17.7774 193.618 17.7166 193.618 17.7166L193.454 17.6932C192.897 17.6389 192.548 18.1123 192.229 18.5584C192.197 18.5959 192.167 18.6356 192.139 18.6773C192.214 18.5928 192.229 18.5756 192.182 18.6258C192.166 18.6421 192.15 18.6575 192.134 18.6719C192.064 18.7585 192.268 18.5984 192.17 18.6479C192.108 18.6757 192.134 18.6683 192.247 18.6255C192.182 18.6373 192.207 18.6387 192.321 18.6298C192.253 18.621 192.262 18.6255 192.348 18.6433C192.288 18.6127 192.295 18.6179 192.369 18.6587C192.343 18.6635 192.245 18.5509 192.23 18.5293C192.289 18.5935 192.293 18.5979 192.243 18.5424L192.131 18.4205C192.084 18.3691 192.034 18.3218 191.98 18.2791C191.816 18.1367 191.613 18.0601 191.401 18.0607C191.401 18.0607 191.19 18.1392 190.807 18.2826C190.715 18.3602 190.638 18.457 190.579 18.5672C190.521 18.6774 190.482 18.7987 190.465 18.9241C190.468 18.9241 190.453 19.1761 190.481 19.2968C190.508 19.4174 190.557 19.5295 190.625 19.6264C190.726 19.7659 190.874 19.8535 191.036 19.8708C191.198 19.8881 191.363 19.8337 191.496 19.719C191.626 19.5994 191.711 19.4294 191.734 19.2454C191.757 19.0614 191.715 18.878 191.617 18.7342Z" fill="var(--fill-0, black)"/>
</g>
</g>
</g>
</svg>
