<svg preserveAspectRatio="none" width="100%" height="100%" overflow="visible" style="display: block;" viewBox="0 0 213 188" fill="none" xmlns="http://www.w3.org/2000/svg">
<g id="undraw_content-creator_vuqg 1" clip-path="url(#clip0_1320_17586)">
<path id="Vector" d="M211.61 155.273H106.231C105.863 155.272 105.509 155.08 105.249 154.74C104.988 154.399 104.841 153.937 104.841 153.455V1.81818C104.841 1.33614 104.988 0.873998 105.249 0.533142C105.509 0.192286 105.863 0.000551473 106.231 0H211.61C211.978 0.000551473 212.332 0.192286 212.592 0.533142C212.853 0.873998 213 1.33614 213 1.81818V153.455C213 153.937 212.853 154.399 212.592 154.74C212.332 155.08 211.978 155.272 211.61 155.273ZM106.231 0.727273C106.01 0.727588 105.798 0.842625 105.642 1.04714C105.485 1.25166 105.397 1.52895 105.397 1.81818V153.455C105.397 153.744 105.485 154.021 105.642 154.226C105.798 154.43 106.01 154.545 106.231 154.545H211.61C211.831 154.545 212.043 154.43 212.199 154.226C212.356 154.021 212.444 153.744 212.444 153.455V1.81818C212.444 1.52895 212.356 1.25166 212.199 1.04714C212.043 0.842625 211.831 0.727588 211.61 0.727273H106.231Z" fill="var(--fill-0, #3F3D56)"/>
<path id="Vector_2" d="M151.691 57.8182H125.555C125.187 57.8176 124.833 57.6259 124.573 57.285C124.312 56.9442 124.165 56.482 124.165 56V21.8182C124.165 21.3361 124.312 20.874 124.573 20.5331C124.833 20.1923 125.187 20.0006 125.555 20H151.691C152.06 20.0006 152.413 20.1923 152.674 20.5331C152.935 20.874 153.081 21.3361 153.082 21.8182V56C153.081 56.482 152.935 56.9442 152.674 57.285C152.413 57.6259 152.06 57.8176 151.691 57.8182ZM125.555 20.7273C125.334 20.7276 125.122 20.8426 124.966 21.0471C124.809 21.2517 124.721 21.529 124.721 21.8182V56C124.721 56.2892 124.809 56.5665 124.966 56.771C125.122 56.9756 125.334 57.0906 125.555 57.0909H151.691C151.913 57.0906 152.125 56.9756 152.281 56.771C152.437 56.5665 152.525 56.2892 152.525 56V21.8182C152.525 21.529 152.437 21.2517 152.281 21.0471C152.125 20.8426 151.913 20.7276 151.691 20.7273H125.555Z" fill="var(--fill-0, #F2F2F2)"/>
<path id="Vector_3" d="M144.184 62H118.048C117.716 61.9995 117.398 61.8269 117.164 61.5202C116.929 61.2134 116.797 60.7975 116.797 60.3636V26.1818C116.797 25.748 116.929 25.3321 117.164 25.0253C117.398 24.7185 117.716 24.5459 118.048 24.5455H144.184C144.516 24.5459 144.834 24.7185 145.069 25.0253C145.303 25.332 145.435 25.748 145.435 26.1818V60.3636C145.435 60.7975 145.303 61.2134 145.069 61.5202C144.834 61.827 144.516 61.9995 144.184 62Z" fill="var(--fill-0, #8C5CFF)"/>
<path id="Vector_4" d="M199.793 78.7273H118.048C117.716 78.7273 117.398 78.5549 117.163 78.248C116.929 77.9411 116.797 77.5249 116.797 77.0909C116.797 76.6569 116.929 76.2407 117.163 75.9338C117.398 75.6269 117.716 75.4545 118.048 75.4545H199.793C200.125 75.4545 200.443 75.6269 200.678 75.9338C200.912 76.2407 201.044 76.6569 201.044 77.0909C201.044 77.5249 200.912 77.9411 200.678 78.248C200.443 78.5549 200.125 78.7273 199.793 78.7273Z" fill="var(--fill-0, #CCCCCC)"/>
<path id="Vector_5" d="M180.052 90H118.048C117.716 90 117.398 89.8276 117.163 89.5207C116.929 89.2138 116.797 88.7976 116.797 88.3636C116.797 87.9296 116.929 87.5134 117.163 87.2066C117.398 86.8997 117.716 86.7273 118.048 86.7273H180.052C180.384 86.7273 180.702 86.8997 180.937 87.2066C181.171 87.5134 181.303 87.9296 181.303 88.3636C181.303 88.7976 181.171 89.2138 180.937 89.5207C180.702 89.8276 180.384 90 180.052 90Z" fill="var(--fill-0, #CCCCCC)"/>
<path id="Vector_6" d="M199.515 37.2727H163.369C163.037 37.2727 162.719 37.1003 162.484 36.7934C162.25 36.4866 162.118 36.0704 162.118 35.6364C162.118 35.2024 162.25 34.7862 162.484 34.4793C162.719 34.1724 163.037 34 163.369 34H199.515C199.847 34 200.165 34.1724 200.4 34.4793C200.634 34.7862 200.766 35.2024 200.766 35.6364C200.766 36.0704 200.634 36.4866 200.4 36.7934C200.165 37.1003 199.847 37.2727 199.515 37.2727Z" fill="var(--fill-0, #CCCCCC)"/>
<path id="Vector_7" d="M190.494 48.5455H163.369C163.037 48.5455 162.719 48.3731 162.484 48.0662C162.25 47.7593 162.118 47.3431 162.118 46.9091C162.118 46.4751 162.25 46.0589 162.484 45.752C162.719 45.4451 163.037 45.2727 163.369 45.2727H190.494C190.826 45.2727 191.144 45.4451 191.379 45.752C191.614 46.0589 191.745 46.4751 191.745 46.9091C191.745 47.3431 191.614 47.7593 191.379 48.0662C191.144 48.3731 190.826 48.5455 190.494 48.5455Z" fill="var(--fill-0, #CCCCCC)"/>
<path id="Vector_8" d="M199.793 101.273H118.048C117.716 101.273 117.398 101.1 117.163 100.793C116.929 100.487 116.797 100.07 116.797 99.6364C116.797 99.2024 116.929 98.7862 117.163 98.4793C117.398 98.1724 117.716 98 118.048 98H199.793C200.125 98 200.443 98.1724 200.678 98.4793C200.912 98.7862 201.044 99.2024 201.044 99.6364C201.044 100.07 200.912 100.487 200.678 100.793C200.443 101.1 200.125 101.273 199.793 101.273Z" fill="var(--fill-0, #CCCCCC)"/>
<path id="Vector_9" d="M180.052 112.545H118.048C117.716 112.545 117.398 112.373 117.163 112.066C116.929 111.759 116.797 111.343 116.797 110.909C116.797 110.475 116.929 110.059 117.163 109.752C117.398 109.445 117.716 109.273 118.048 109.273H180.052C180.384 109.273 180.702 109.445 180.937 109.752C181.171 110.059 181.303 110.475 181.303 110.909C181.303 111.343 181.171 111.759 180.937 112.066C180.702 112.373 180.384 112.545 180.052 112.545Z" fill="var(--fill-0, #CCCCCC)"/>
<path id="Vector_10" d="M199.793 123.818H118.048C117.716 123.818 117.398 123.646 117.163 123.339C116.929 123.032 116.797 122.616 116.797 122.182C116.797 121.748 116.929 121.332 117.163 121.025C117.398 120.718 117.716 120.545 118.048 120.545H199.793C200.125 120.545 200.443 120.718 200.678 121.025C200.912 121.332 201.044 121.748 201.044 122.182C201.044 122.616 200.912 123.032 200.678 123.339C200.443 123.646 200.125 123.818 199.793 123.818Z" fill="var(--fill-0, #CCCCCC)"/>
<path id="Vector_11" d="M199.793 135.091H118.048C117.716 135.091 117.398 134.919 117.163 134.612C116.929 134.305 116.797 133.889 116.797 133.455C116.797 133.021 116.929 132.604 117.163 132.297C117.398 131.991 117.716 131.818 118.048 131.818H199.793C200.125 131.818 200.443 131.991 200.678 132.297C200.912 132.604 201.044 133.021 201.044 133.455C201.044 133.889 200.912 134.305 200.678 134.612C200.443 134.919 200.125 135.091 199.793 135.091Z" fill="var(--fill-0, #CCCCCC)"/>
<path id="Vector_12" d="M133.877 141.204H74.0975C73.7289 141.203 73.3756 141.012 73.115 140.671C72.8543 140.33 72.7077 139.868 72.7073 139.386V91.0222C72.7077 90.5401 72.8543 90.078 73.115 89.7371C73.3756 89.3963 73.7289 89.2046 74.0975 89.204H133.877C134.245 89.2046 134.599 89.3963 134.859 89.7371C135.12 90.078 135.267 90.5401 135.267 91.0222V139.386C135.267 139.868 135.12 140.33 134.859 140.671C134.599 141.012 134.245 141.203 133.877 141.204Z" fill="var(--fill-0, white)"/>
<path id="Vector_13" d="M133.877 141.204H74.0975C73.7289 141.203 73.3756 141.012 73.115 140.671C72.8543 140.33 72.7077 139.868 72.7073 139.386V91.0222C72.7077 90.5401 72.8543 90.078 73.115 89.7371C73.3756 89.3963 73.7289 89.2046 74.0975 89.204H133.877C134.245 89.2046 134.599 89.3963 134.859 89.7371C135.12 90.078 135.267 90.5401 135.267 91.0222V139.386C135.267 139.868 135.12 140.33 134.859 140.671C134.599 141.012 134.245 141.203 133.877 141.204ZM74.0975 89.9313C73.8764 89.9316 73.6643 90.0466 73.508 90.2511C73.3516 90.4557 73.2636 90.733 73.2634 91.0222V139.386C73.2636 139.675 73.3516 139.952 73.508 140.157C73.6643 140.361 73.8764 140.477 74.0975 140.477H133.877C134.098 140.476 134.31 140.361 134.466 140.157C134.623 139.952 134.711 139.675 134.711 139.386V91.0222C134.711 90.733 134.623 90.4557 134.466 90.2511C134.31 90.0466 134.098 89.9316 133.877 89.9313H74.0975Z" fill="var(--fill-0, #3F3D56)"/>
<path id="Vector_14" d="M122.06 111.204H85.9144C85.5825 111.204 85.2643 111.032 85.0296 110.725C84.795 110.418 84.6632 110.002 84.6632 109.568C84.6632 109.134 84.795 108.717 85.0296 108.411C85.2643 108.104 85.5825 107.931 85.9144 107.931H122.06C122.392 107.931 122.71 108.104 122.945 108.411C123.179 108.717 123.311 109.134 123.311 109.568C123.311 110.002 123.179 110.418 122.945 110.725C122.71 111.032 122.392 111.204 122.06 111.204Z" fill="var(--fill-0, #CCCCCC)"/>
<path id="Vector_15" d="M122.06 122.477H85.9144C85.5825 122.477 85.2643 122.304 85.0296 121.997C84.795 121.691 84.6632 121.274 84.6632 120.84C84.6632 120.406 84.795 119.99 85.0296 119.683C85.2643 119.376 85.5825 119.204 85.9144 119.204H122.06C122.392 119.204 122.71 119.376 122.945 119.683C123.179 119.99 123.311 120.84 123.311 120.84C123.311 121.274 123.179 121.691 122.945 121.997C122.71 122.304 122.392 122.477 122.06 122.477Z" fill="var(--fill-0, #CCCCCC)"/>
<path id="Vector_16" d="M64.0432 183.597H67.452L69.0735 166.401L64.0426 166.401L64.0432 183.597Z" fill="var(--fill-0, #A0616A)"/>
<path id="Vector_17" d="M63.1737 182.141L69.8868 182.141H69.887C71.0216 182.141 72.1097 182.73 72.912 183.78C73.7143 184.829 74.1651 186.252 74.1651 187.736V187.918L63.1739 187.918L63.1737 182.141Z" fill="var(--fill-0, #2F2E41)"/>
<path id="Vector_18" d="M37.5014 181.667L40.8719 182.333L44.4408 165.648L40.0224 164.665L37.5014 181.667Z" fill="var(--fill-0, #A0616A)"/>
<path id="Vector_19" d="M36.808 180.058L43.4457 181.37L43.4459 181.37C44.5678 181.592 45.5763 182.387 46.2496 183.582C46.923 184.776 47.206 186.271 47.0365 187.739L47.0157 187.918L36.1479 185.77L36.808 180.058Z" fill="var(--fill-0, #2F2E41)"/>
<path id="Vector_20" d="M48.0115 98.3793L51.7963 99.6763L51.5445 107.702L51.5133 122.313C51.8862 122.65 52.172 123.128 52.333 123.682C52.4939 124.236 52.5223 124.842 52.4145 125.418C52.3067 125.993 52.0678 126.513 51.7293 126.908C51.3908 127.302 50.9687 127.553 50.5189 127.627C50.069 127.701 49.6126 127.594 49.21 127.322C48.8074 127.049 48.4776 126.623 48.2642 126.1C48.0508 125.576 47.9639 124.981 48.015 124.392C48.066 123.802 48.2526 123.247 48.5501 122.8L47.3871 108.135L48.0115 98.3793Z" fill="var(--fill-0, #A0616A)"/>
<path id="Vector_21" d="M47.3527 89.1871C47.3736 88.4116 47.5648 87.6603 47.9035 87.023C48.2422 86.3858 48.714 85.8896 49.2626 85.5938C49.7761 85.2932 50.3456 85.1954 50.901 85.3122C51.4564 85.4291 51.9737 85.7555 52.3893 86.2514C52.688 86.6005 52.9249 87.0305 53.0834 87.5116C53.242 87.9927 53.3184 88.5133 53.3073 89.0369C53.3173 93.7383 52.5058 100.591 52.4976 100.659L52.4846 100.768L46.9524 103.205L47.3527 89.1871Z" fill="var(--fill-0, #8C5CFF)"/>
<path id="Vector_22" d="M57.2444 102.533L65.706 99.668L69.6174 116.896L69.7564 181.078L63.2858 181.025L60.581 129.078L43.3423 177.078L36.3912 175.987L51.5445 124.533C51.5445 124.533 50.7104 115.442 53.3518 110.896L52.7957 106.169L57.2444 102.533Z" fill="var(--fill-0, #2F2E41)"/>
<path id="Vector_23" d="M51.5389 106.819C51.4207 106.631 51.3347 106.412 51.287 106.176C51.2393 105.941 51.2308 105.695 51.2623 105.455L47.4027 90.3114C47.2225 89.6035 47.2034 88.8424 47.3476 88.1206C47.4918 87.3987 47.7932 86.7472 48.2152 86.245L49.8907 84.2532L51.0262 78.3132L57.5523 80.3995L57.0146 83.2123L59.9681 82.5103L66.189 100.631L53.1856 107.429L52.5452 107.442C52.3527 107.442 52.1624 107.387 51.9884 107.279C51.8143 107.171 51.6608 107.014 51.9884 107.279Z" fill="var(--fill-0, #8C5CFF)"/>
<path id="Vector_24" d="M60.597 94.0329L64.3258 92.4831L67.393 99.4416L73.3386 111.812C73.7916 111.837 74.2283 112.04 74.5908 112.396C74.9534 112.752 75.2248 113.244 75.3691 113.806C75.5134 114.368 75.5238 114.974 75.399 115.544C75.2741 116.114 75.0199 116.622 74.6699 116.998C74.32 117.375 73.8907 117.605 73.439 117.656C72.9873 117.707 72.5344 117.577 72.1402 117.284C71.7461 116.991 71.4292 116.548 71.2315 116.015C71.0339 115.481 70.9647 114.882 71.0333 114.295L64.0565 102.714L60.597 94.0329Z" fill="var(--fill-0, #A0616A)"/>
<path id="Vector_25" d="M56.2832 86.7244C55.9839 86.0544 55.8384 85.2858 55.8642 84.5105C55.89 83.7353 56.086 82.9861 56.4287 82.3526C56.7401 81.7399 57.1814 81.2592 57.6985 80.9697C58.2156 80.6802 58.7861 80.5943 59.3401 80.7227C59.7352 80.8088 60.1111 81.0067 60.4418 81.3025C60.7724 81.5982 61.0497 81.9847 61.2544 82.435C63.1843 86.4013 65.2992 92.7603 65.3203 92.8239L65.3538 92.9251L61.6742 98.8516L56.2832 86.7244Z" fill="var(--fill-0, #8C5CFF)"/>
<path id="Vector_26" d="M55.8546 77.2079C58.7183 77.2079 61.0398 74.1718 61.0398 70.4265C61.0398 66.6812 58.7183 63.6451 55.8546 63.6451C52.9909 63.6451 50.6694 66.6812 50.6694 70.4265C50.6694 74.1718 52.9909 77.2079 55.8546 77.2079Z" fill="var(--fill-0, #A0616A)"/>
<path id="Vector_27" d="M46.6912 67.566C49.4497 67.566 51.6859 64.6414 51.6859 61.0338C51.6859 57.4261 49.4497 54.5016 46.6912 54.5016C43.9327 54.5016 41.6966 57.4261 41.6966 61.0338C41.6966 64.6414 43.9327 67.566 46.6912 67.566Z" fill="var(--fill-0, #2F2E41)"/>
<path id="Vector_28" d="M42.3831 66.4429C43.0295 67.054 43.7785 67.4537 44.5673 67.6086C45.3561 67.7635 46.1618 67.6691 46.917 67.3332C47.6721 66.9974 48.3549 66.43 48.908 65.6783C49.4611 64.9267 49.8685 64.0127 50.0962 63.0129C50.01 63.9089 49.7828 64.7718 49.4288 65.5471C49.0748 66.3224 48.6017 66.9933 48.0394 67.5175C47.4772 68.0416 46.8379 68.4076 46.162 68.5923C45.4862 68.7771 44.7883 68.7765 44.1126 68.5908C43.4369 68.405 42.798 68.038 42.2362 67.513C41.6744 66.988 41.202 66.3163 40.8487 65.5404C40.4954 64.7646 40.2689 63.9013 40.1836 63.0052C40.0982 62.1091 40.1559 61.1996 40.3529 60.3341C40.241 61.4969 40.3705 62.6776 40.7277 63.7525C41.0849 64.8273 41.6567 65.7566 42.3831 66.4429Z" fill="var(--fill-0, #2F2E41)"/>
<path id="Vector_29" d="M62.0942 66.4502C61.2223 64.4086 60.8887 63.5558 59.7644 62.3143C58.7702 61.2164 57.5473 60.894 56.561 61.9343C55.3941 61.2749 54.0958 61.1254 52.8588 61.5079C51.6218 61.8905 50.5122 62.7847 49.6947 64.0577C48.8772 65.3307 48.3955 66.9146 48.3212 68.5742C48.2469 70.2337 48.5838 71.8804 49.282 73.2696C49.9802 74.6587 51.0024 75.7162 52.1968 76.2851C53.3912 76.854 54.694 76.9038 55.9117 76.4271C57.1295 75.9505 58.1972 74.9729 58.9562 73.6394C59.7153 72.306 60.1252 70.6879 60.1251 69.0255C60.1242 68.7335 60.1108 68.4419 60.0849 68.152C60.9422 67.9945 61.2369 66.6076 62.0942 66.4502Z" fill="var(--fill-0, #2F2E41)"/>
<path id="Vector_30" d="M106.213 188H0.278041C0.204299 188 0.133577 187.962 0.0814341 187.893C0.0292908 187.825 -2.73744e-06 187.733 -2.73744e-06 187.636C-2.73744e-06 187.54 0.0292908 187.447 0.0814341 187.379C0.133577 187.311 0.204299 187.273 0.278041 187.273H106.213C106.286 187.273 106.357 187.311 106.409 187.379C106.461 187.447 106.491 187.54 106.491 187.636C106.491 187.733 106.461 187.825 106.409 187.893C106.357 187.962 106.286 188 106.213 188Z" fill="var(--fill-0, #CCCCCC)"/>
</g>
<defs>
<clipPath id="clip0_1320_17586">
<rect width="213" height="188" fill="white"/>
</clipPath>
</defs>
</svg>
