<svg preserveAspectRatio="none" width="100%" height="100%" overflow="visible" style="display: block;" viewBox="0 0 100.601 22.9083" fill="none" xmlns="http://www.w3.org/2000/svg">
<g id="Frame 61">
<path id="Fill-1" fill-rule="evenodd" clip-rule="evenodd" d="M45.1834 0L34.0907 16.9753H1.18294L0 20.8286H36.1729L47.2018 3.8524H98.0452L100.601 0H45.1834Z" fill="url(#paint0_radial_1320_17579)"/>
<path id="Fill-2" fill-rule="evenodd" clip-rule="evenodd" d="M0.34577 21.8286L0 22.9083H86.0557L86.7873 21.8286H0.34577Z" fill="url(#paint1_radial_1320_17579)"/>
<path id="Fill-3" fill-rule="evenodd" clip-rule="evenodd" d="M49.5806 5.7207H54.8839L53.3058 10.6612H56.795L58.4446 5.7207H63.8671L59.0655 20.4707H53.7835L55.4323 15.1253H51.921L50.0584 20.543H44.7773L49.5806 5.7207Z" fill="url(#paint2_radial_1320_17579)"/>
<path id="Fill-4" fill-rule="evenodd" clip-rule="evenodd" d="M80.9357 5.7199H86.2883V14.0967L91.6383 5.64844H97.134L87.0999 20.5423H80.8633L80.9357 5.7199Z" fill="url(#paint3_radial_1320_17579)"/>
<path id="Fill-5" fill-rule="evenodd" clip-rule="evenodd" d="M64.312 5.7199H69.6646V14.0967L75.0164 5.64844H80.5129L70.4788 20.5423H64.2422L64.312 5.7199Z" fill="url(#paint4_radial_1320_17579)"/>
</g>
<defs>
<radialGradient id="paint0_radial_1320_17579" cx="0" cy="0" r="1" gradientUnits="userSpaceOnUse" gradientTransform="translate(50.3005 10.4143) scale(50.3005 10.4143)">
<stop stop-color="#AC8EF3"/>
<stop offset="1" stop-color="#3E1A94"/>
</radialGradient>
<radialGradient id="paint1_radial_1320_17579" cx="0" cy="0" r="1" gradientUnits="userSpaceOnUse" gradientTransform="translate(43.3937 22.3684) scale(43.3937 0.539849)">
<stop stop-color="#8C5CFF"/>
<stop offset="1" stop-color="#543799"/>
</radialGradient>
<radialGradient id="paint2_radial_1320_17579" cx="0" cy="0" r="1" gradientUnits="userSpaceOnUse" gradientTransform="translate(54.3222 13.1319) scale(9.54486 7.41117)">
<stop stop-color="#8C5CFF"/>
<stop offset="1" stop-color="#543799"/>
</radialGradient>
<radialGradient id="paint3_radial_1320_17579" cx="0" cy="0" r="1" gradientUnits="userSpaceOnUse" gradientTransform="translate(88.9987 13.0953) scale(8.13538 7.44691)">
<stop stop-color="#8C5CFF"/>
<stop offset="1" stop-color="#543799"/>
</radialGradient>
<radialGradient id="paint4_radial_1320_17579" cx="0" cy="0" r="1" gradientUnits="userSpaceOnUse" gradientTransform="translate(72.3776 13.0953) scale(8.13538 7.44691)">
<stop stop-color="#8C5CFF"/>
<stop offset="1" stop-color="#543799"/>
</radialGradient>
</defs>
</svg>
