<svg preserveAspectRatio="none" width="100%" height="100%" overflow="visible" style="display: block;" viewBox="0 0 203 174" fill="none" xmlns="http://www.w3.org/2000/svg">
<g id="Group">
<g id="Group_2">
<path id="Vector" d="M83.4038 74.0586L111.155 71.5423L111.042 71.2015C105.448 54.313 100.88 39.5818 101.644 30.3452C101.655 30.2164 101.626 30.0874 101.561 29.9725C101.495 29.8576 101.396 29.7612 101.274 29.694C101.151 29.6253 101.009 29.5887 100.864 29.5882C100.719 29.5877 100.577 29.6234 100.453 29.6912L69.3017 47.3696L73.3193 54.7811L83.4038 74.0586Z" fill="var(--fill-0, #E6E6E6)"/>
<path id="Vector_2" d="M83.1542 83.0341C83.6002 83.0336 84.0449 82.9899 84.4807 82.9036L109.73 77.9139C110.539 77.7458 111.295 77.4124 111.94 76.9393C112.584 76.4662 113.1 75.8659 113.448 75.1845C113.822 74.4812 114.028 73.7149 114.054 72.935C114.079 72.1552 113.924 71.3791 113.597 70.657L103.834 49.0566C103.595 48.4905 103.166 48.0064 102.607 47.6727C102.047 47.339 101.386 47.1725 100.717 47.1966L71.5566 50.1872C71.3121 50.2 71.0701 50.1376 70.8698 50.0101C70.6696 49.8826 70.5229 49.6976 70.4538 49.4851C70.3655 49.2709 70.3532 49.0371 70.4186 48.8163C70.484 48.5954 70.6238 48.3985 70.8186 48.2528L99.1186 30.2064C99.1911 30.1499 99.2385 30.0716 99.2523 29.986C99.2661 29.9003 99.2453 29.8131 99.1936 29.7403C99.1707 29.7048 99.1401 29.6739 99.1036 29.6495C99.0672 29.625 99.0256 29.6075 98.9815 29.5979C98.9374 29.5883 98.8915 29.5869 98.8468 29.5938C98.802 29.6007 98.7593 29.6156 98.7211 29.6378L70.7587 45.5129C68.7 46.6822 67.7443 49.0479 68.4345 51.2664L76.9064 78.5057C77.7594 81.2484 80.3183 83.0341 83.1542 83.0341Z" fill="var(--fill-0, #8C5CFF)"/>
</g>
<path id="Vector_3" d="M67.474 151.95H56.7316V164.757H67.474V151.95Z" fill="var(--fill-0, #ED9DA0)"/>
<path id="Vector_4" d="M65.6416 173.595H42.8062C40.8427 173.593 38.9047 173.194 37.1338 172.427L32.9239 170.596C32.4602 170.395 32.0755 170.07 31.8213 169.665C31.5671 169.261 31.4554 168.795 31.5012 168.332C31.5469 167.868 31.748 167.429 32.0774 167.071C32.4069 166.714 32.8491 166.456 33.3449 166.332L42.0297 164.158L56.8876 157.095L56.8987 157.146C57.1764 158.418 57.6069 160.341 57.6617 160.458C59.1854 162.037 60.7509 162.763 62.3139 162.621C65.0409 162.371 66.8536 159.523 66.8717 159.494L66.8854 159.472L66.913 159.475C67.19 159.485 67.4606 159.553 67.704 159.673C67.9474 159.793 68.157 159.962 68.3167 160.167C68.9385 161.015 68.5593 162.322 68.4968 162.519C69.2423 163.178 69.5763 166.859 69.603 167.157C70.6801 168.189 71.1918 169.182 71.1242 170.108C71.0648 170.917 70.569 171.668 69.6501 172.34C68.5114 173.16 67.0968 173.603 65.6414 173.596L65.6416 173.595Z" fill="var(--fill-0, #E6E6E6)"/>
<path id="Vector_5" d="M189.05 17.3792C189.049 14.9073 188.291 12.484 186.86 10.3782C185.428 8.27249 183.38 6.56673 180.942 5.45034C178.503 4.33395 175.77 3.85063 173.047 4.05404C170.323 4.25744 167.715 5.13961 165.512 6.6026C163.309 8.06559 161.598 10.0522 160.568 12.3417C159.538 14.6313 159.23 17.1342 159.677 19.5727C160.125 22.0111 161.311 24.2897 163.104 26.1553C164.897 28.0209 167.226 29.4006 169.834 30.1412L172.693 47.2271L187.266 36.2434C187.266 36.2434 184.118 32.6168 182.429 28.5276C184.466 27.3091 186.137 25.653 187.293 23.7073C188.448 21.7616 189.053 19.5871 189.051 17.3785L189.05 17.3792Z" fill="var(--fill-0, #ED9DA0)"/>
<path id="Vector_6" d="M188.846 32.8427L168.035 33.7462L165.55 38.8031C165.55 38.8031 141.452 48.4851 140.08 57.9066C140.08 57.9066 133.862 73.5925 120.201 73.0768C106.54 72.5611 146.913 108.474 146.913 108.474L188.535 60.716L190.088 38.6111L188.846 32.8427Z" fill="var(--fill-0, #090814)"/>
<path id="Vector_7" d="M83.9093 101.473L75.4737 100.609C77.6223 104.733 76.8699 114.364 75.3294 123.975C73.2957 136.633 69.8834 159.916 69.8834 159.916L55.5968 156.561V93.3027C55.5968 84.8637 82.5701 81.0279 102.749 79.3382C114.803 78.3318 124.432 78.0869 124.432 78.0869L152.36 108.479L83.9093 101.473Z" fill="var(--fill-0, #090814)"/>
<path id="Vector_8" d="M99.3571 140.661L90.4754 146.127L98.4404 156.715L107.322 151.249L99.3571 140.661Z" fill="var(--fill-0, #ED9DA0)"/>
<path id="Vector_9" d="M113.667 153.813C113.148 153.016 112.109 152.456 110.573 152.152C110.368 151.919 107.802 149.046 106.777 148.876C106.707 148.683 106.209 147.412 105.166 147.025C104.828 146.901 104.455 146.883 104.105 146.974C103.92 147.018 103.741 147.083 103.573 147.167L103.547 147.179L103.551 147.203C103.555 147.238 103.824 150.514 101.727 152.109C100.522 153.021 98.7771 153.218 96.5342 152.689C96.4171 152.619 94.8672 151.249 93.846 150.337L93.8022 150.302L93.7195 150.44L85.9125 163.702L80.0867 169.919C79.753 170.273 79.5471 170.712 79.4966 171.175C79.4461 171.638 79.5535 172.105 79.8043 172.511C80.055 172.918 80.4373 173.246 80.8997 173.45C81.3622 173.655 81.8828 173.727 82.3917 173.656L87.0076 173.029C88.9479 172.761 90.7979 172.106 92.4233 171.111L111.306 159.491C112.513 158.755 113.406 157.669 113.837 156.412C114.178 155.389 114.121 154.517 113.667 153.813Z" fill="var(--fill-0, #E6E6E6)"/>
<path id="Vector_10" d="M89.0328 112.131C97.6207 125.014 106.305 146.024 106.305 146.024L103.961 146.782L93.5093 150.161L92.4052 150.52L80.4501 134.633C73.5816 125.5 65.412 114.638 60.7165 108.402V103.96C60.7165 95.5212 87.6898 91.6854 107.869 89.9957L80.6641 102.954C83.2155 104.317 86.118 107.753 89.0328 112.131Z" fill="var(--fill-0, #090814)"/>
<path id="Vector_11" d="M196.885 65.0421C195.776 63.8208 194.377 62.842 192.791 62.179C191.205 61.5161 189.474 61.1861 187.727 61.2138C185.981 61.2415 184.263 61.6262 182.704 62.339C181.145 63.0518 179.784 64.0743 178.724 65.3301L142.998 107.632L86.0531 101.709C84.6828 101.567 83.2947 101.676 81.972 102.03C80.6493 102.383 79.4191 102.975 78.3551 103.769C77.2911 104.563 76.4151 105.543 75.7795 106.65C75.144 107.758 74.762 108.969 74.6563 110.213C74.4562 112.561 75.2506 114.889 76.8784 116.726C78.5061 118.564 80.8455 119.772 83.4221 120.107L148.724 128.598C153.12 129.17 157.605 128.539 161.602 126.787C165.599 125.034 168.925 122.241 171.152 118.765L197.953 76.9452C199.136 75.0988 199.668 72.9697 199.477 70.8425C199.286 68.7154 198.382 66.6916 196.884 65.0421H196.885Z" fill="var(--fill-0, #E6E6E6)"/>
<path id="Vector_12" d="M98.7694 116.06H90.6936V173.605H98.7694V116.06Z" fill="var(--fill-0, #E6E6E6)"/>
<path id="Vector_13" d="M154.191 116.06H146.116V173.605H154.191V116.06Z" fill="var(--fill-0, #E6E6E6)"/>
<path id="Vector_14" d="M117.887 73.1899L131.619 78.7877L128.006 86.04L114.273 80.4422C113.123 80.8245 111.9 80.9959 110.676 80.9464C109.452 80.8969 108.251 80.6274 107.143 80.1538C102.863 78.409 100.686 74.397 102.283 71.1928C103.88 67.9886 108.644 66.8054 112.925 68.5502C114.051 68.987 115.07 69.6223 115.922 70.4189C116.773 71.2155 117.441 72.1576 117.887 73.1901V73.1899Z" fill="var(--fill-0, #ED9DA0)"/>
<path id="Vector_15" d="M161.202 52.2877L150.02 81.5049L123.928 74.2006L118.958 86.5618L157.651 96.1546L181.164 58.3531" fill="var(--fill-0, #090814)"/>
<path id="Vector_16" d="M203 174H0V173.21H203V174Z" fill="var(--fill-0, #E6E6E6)"/>
<path id="Vector_17" d="M196.619 32.7774C196.619 32.7774 196.408 37.7364 189.809 38.4541L176.421 39.9064C176.421 39.9064 185.201 13.9804 180.825 17.1861C176.448 20.3918 162.798 9.64147 162.798 9.64147L159.767 16.1773C159.767 16.1773 150.703 14.0421 159.699 6.19279C159.699 6.19279 170.462 -2.89001 183.273 0.944077C196.083 4.77817 196.62 32.7772 196.62 32.7772L196.619 32.7774Z" fill="var(--fill-0, #090814)"/>
</g>
</svg>
